 <svg  version="1.0" xmlns="http://www.w3.org/2000/svg"  width="900.000000pt" height="882.000000pt" viewBox="0 0 900.000000 882.000000"  preserveAspectRatio="xMidYMid meet">  <g transform="translate(0.000000,882.000000) scale(0.100000,-0.100000)" fill="#000000" stroke="none"> <path d="M4210 8410 c-9 -5 -67 -12 -130 -15 -63 -4 -144 -13 -180 -20 -36 -8 -105 -19 -155 -25 -116 -16 -195 -34 -405 -96 -52 -15 -99 -31 -105 -35 -5 -4 -26 -10 -45 -14 -19 -4 -41 -11 -50 -16 -8 -4 -43 -17 -77 -28 -120 -40 -361 -153 -558 -262 -38 -21 -76 -41 -84 -45 -7 -4 -63 -40 -123 -80 -61 -41 -113 -74 -117 -74 -3 0 -29 -20 -56 -45 -28 -25 -55 -45 -61 -45 -6 0 -21 -12 -35 -26 -13 -15 -46 -41 -74 -59 -56 -37 -565 -544 -565 -563 0 -6 -22 -37 -50 -67 -27 -30 -50 -59 -50 -63 0 -5 -13 -25 -30 -44 -42 -48 -77 -98 -92 -128 -7 -14 -25 -40 -40 -58 -15 -18 -28 -37 -28 -42 0 -5 -14 -30 -32 -56 -32 -48 -59 -95 -135 -244 -25 -46 -48 -89 -52 -95 -4 -5 -18 -35 -30 -65 -12 -30 -29 -70 -37 -87 -48 -109 -68 -162 -105 -278 -17 -55 -37 -116 -44 -135 -22 -60 -84 -293 -91 -345 -3 -16 -10 -59 -16 -95 -17 -103 -18 -110 -29 -200 -5 -47 -14 -110 -20 -140 -16 -80 -23 -546 -9 -660 6 -52 15 -135 20 -185 14 -137 76 -456 105 -540 9 -27 21 -70 25 -95 4 -25 13 -61 20 -80 7 -19 19 -51 25 -70 7 -19 22 -64 33 -100 12 -36 30 -84 41 -107 12 -23 21 -48 21 -56 0 -8 7 -20 15 -27 8 -7 15 -19 15 -27 0 -21 95 -226 139 -298 10 -16 44 -76 75 -132 32 -56 64 -107 72 -114 8 -6 14 -20 14 -30 0 -10 4 -20 10 -24 5 -3 34 -43 64 -88 30 -45 69 -97 85 -116 17 -18 31 -39 31 -45 0 -7 16 -28 36 -47 20 -18 51 -56 69 -84 39 -59 476 -495 497 -495 8 0 32 -18 53 -41 22 -22 59 -52 82 -66 24 -14 43 -28 43 -32 0 -4 20 -20 44 -35 24 -15 54 -39 67 -52 12 -13 28 -24 35 -24 7 0 29 -13 47 -30 19 -16 41 -30 48 -30 7 0 22 -9 33 -19 20 -19 137 -84 243 -136 29 -15 55 -30 58 -36 4 -5 14 -9 24 -9 10 0 24 -7 31 -15 7 -8 20 -15 30 -15 10 0 23 -7 30 -15 7 -8 27 -17 46 -21 18 -3 38 -12 45 -20 6 -8 19 -14 28 -14 9 0 21 -4 27 -10 11 -11 135 -59 174 -67 14 -3 34 -12 45 -19 11 -8 31 -14 45 -14 14 0 34 -7 44 -15 11 -8 30 -15 43 -15 13 0 52 -10 86 -21 34 -12 87 -27 117 -34 30 -7 75 -19 100 -25 25 -7 70 -16 100 -20 30 -5 80 -13 110 -19 196 -38 451 -61 665 -61 219 -1 484 23 685 61 30 6 80 14 110 18 65 10 195 43 301 77 42 13 83 24 91 24 9 0 46 13 84 29 38 15 94 36 124 45 83 26 388 163 480 216 8 5 22 11 30 14 8 4 29 15 45 26 17 10 63 38 103 62 41 24 81 48 91 53 9 6 32 21 51 35 19 14 42 30 51 35 34 21 102 72 145 108 25 20 51 37 57 37 7 0 39 27 72 60 33 33 64 60 71 60 13 0 402 388 418 417 6 12 37 49 69 83 31 34 57 67 57 73 0 5 20 32 45 58 25 26 45 55 45 62 0 8 7 20 15 27 17 14 95 129 95 140 0 4 7 14 17 21 9 8 22 28 30 44 7 17 28 53 45 80 47 75 151 278 198 385 23 52 52 118 65 145 12 28 32 84 44 125 13 41 31 95 40 120 10 25 23 65 31 90 7 25 19 62 26 83 8 20 14 50 14 65 1 15 7 38 15 52 8 14 15 39 15 55 0 17 10 73 21 125 12 52 25 127 29 166 4 38 13 88 18 110 23 85 35 472 23 711 -7 125 -16 244 -22 263 -5 19 -14 69 -20 110 -25 175 -53 323 -64 341 -4 5 -10 30 -15 57 -8 47 -21 89 -46 150 -8 18 -14 44 -14 57 0 14 -4 33 -9 43 -4 9 -14 33 -21 52 -84 236 -90 251 -205 480 -89 178 -123 241 -140 260 -8 9 -15 21 -15 26 0 5 -20 40 -45 77 -25 38 -45 72 -45 76 0 5 -10 16 -21 27 -12 10 -36 42 -54 69 -18 28 -42 59 -54 69 -11 11 -21 24 -21 30 0 7 -27 42 -60 79 -33 38 -60 72 -60 77 0 15 -422 435 -470 467 -25 17 -56 43 -70 58 -14 15 -47 43 -75 62 -105 71 -121 83 -148 107 -15 15 -32 26 -37 26 -5 0 -25 14 -43 30 -19 17 -38 30 -42 30 -4 0 -51 27 -106 60 -54 33 -103 60 -108 60 -5 0 -14 7 -21 15 -7 8 -20 15 -30 15 -10 0 -22 6 -28 13 -17 20 -327 167 -353 167 -6 0 -34 11 -62 24 -55 25 -262 95 -362 121 -33 9 -67 20 -76 25 -16 8 -258 57 -394 80 -38 6 -126 15 -194 20 -68 5 -137 14 -154 20 -37 12 -486 13 -507 0z m-805 -2170 l0 -195 -105 -6 c-218 -12 -275 -54 -301 -216 -5 -37 -14 -216 -18 -398 -5 -181 -13 -350 -19 -375 -6 -25 -18 -81 -28 -125 -15 -71 -49 -163 -75 -205 -5 -8 -14 -26 -19 -39 -15 -35 -177 -197 -211 -211 -27 -12 -41 -40 -20 -40 19 0 130 -97 174 -151 90 -110 135 -220 177 -434 6 -33 16 -208 21 -390 10 -361 21 -460 59 -521 30 -49 139 -84 283 -91 l87 -4 -2 -192 -3 -192 -190 1 c-206 1 -272 11 -363 57 -68 34 -162 104 -162 121 0 7 -9 21 -21 32 -46 42 -98 185 -120 334 -5 36 -14 223 -19 415 -4 193 -13 377 -19 410 -29 155 -56 222 -114 283 -61 63 -107 81 -252 101 -27 4 -56 10 -62 14 -20 13 -18 430 1 447 8 6 47 14 87 17 160 11 248 74 300 217 40 109 51 211 60 571 5 193 13 377 18 410 14 95 47 220 65 245 6 8 22 37 36 64 30 59 109 133 176 165 27 13 58 29 69 34 21 11 69 23 145 37 25 4 117 7 205 6 l160 -1 0 -195z m2465 190 c25 -6 67 -14 93 -19 27 -4 53 -13 60 -20 6 -6 16 -11 23 -11 7 0 44 -18 83 -41 57 -33 80 -54 114 -103 59 -86 92 -163 107 -246 5 -25 14 -67 20 -95 6 -27 15 -212 20 -410 6 -198 13 -373 16 -390 25 -137 54 -230 90 -286 12 -20 47 -52 77 -72 45 -30 68 -38 137 -46 46 -6 86 -9 88 -6 3 2 13 0 23 -6 18 -9 19 -25 19 -227 0 -156 -3 -221 -12 -230 -7 -7 -28 -12 -48 -13 -46 0 -135 -21 -181 -42 -72 -32 -144 -138 -169 -247 -27 -118 -30 -156 -40 -510 -9 -334 -14 -395 -40 -515 -22 -102 -63 -193 -120 -265 -34 -43 -154 -122 -210 -138 -137 -40 -149 -42 -323 -42 -165 0 -177 1 -187 20 -6 12 -9 85 -8 192 l3 173 90 6 c106 7 204 26 226 45 8 8 20 14 26 14 19 0 47 41 61 88 8 29 17 139 22 282 18 490 26 568 71 737 44 166 131 295 263 392 25 18 46 39 46 46 0 7 -18 25 -40 40 -74 51 -173 166 -212 245 -90 186 -110 326 -126 892 -5 167 -11 241 -20 250 -6 6 -12 22 -12 34 0 75 -130 133 -301 134 -70 0 -88 3 -93 16 -3 9 -6 96 -6 194 0 133 3 180 13 183 22 9 311 6 357 -3z m-2255 -1745 c28 -13 60 -34 72 -47 33 -35 75 -126 80 -172 13 -114 -87 -258 -191 -277 -23 -5 -54 -11 -69 -15 -77 -18 -204 62 -254 160 -22 43 -24 59 -21 125 3 67 8 83 40 132 77 118 213 155 343 94z m911 19 c229 -58 277 -374 74 -490 -55 -31 -145 -50 -175 -36 -14 7 -36 12 -49 12 -13 0 -29 7 -36 15 -7 8 -18 15 -24 15 -22 0 -93 85 -109 130 -53 144 33 314 178 352 77 21 66 20 141 2z m946 7 c13 -5 35 -12 49 -15 39 -8 117 -82 144 -137 43 -84 32 -200 -26 -276 -34 -45 -101 -93 -129 -93 -16 0 -41 -5 -55 -12 -57 -26 -208 39 -250 107 -38 60 -47 91 -46 162 0 132 75 227 206 259 63 16 79 16 107 5z"/> </g> </svg> 